<?xml version="1.0" encoding="UTF-8"?>
<svg id="Layer_2" data-name="Layer 2" xmlns="http://www.w3.org/2000/svg" viewBox="0 0 766.6 419.06">
  <defs>
    <style>
      .cls-1 {
        fill: #a67c52;
      }

      .cls-1, .cls-2, .cls-3, .cls-4 {
        stroke-width: 0px;
      }

      .cls-5 {
        stroke: #a67c52;
        stroke-width: 3px;
      }

      .cls-5, .cls-6 {
        stroke-miterlimit: 10;
      }

      .cls-5, .cls-6, .cls-4 {
        fill: #fff3e1;
      }

      .cls-2 {
        fill: #603813;
      }

      .cls-3 {
        fill: #a1865c;
      }

      .cls-6 {
        stroke: #603813;
        stroke-width: 7px;
      }
    </style>
  </defs>
  <g id="Layer_2-2" data-name="Layer 2">
    <path class="cls-6" d="M430.27,52.05c-9.35-2.46-18.81-.89-26.54,3.62l-36.49,21.3C303.94,1.48,193.66-19.72,105.7,31.61,7.44,88.96-25.73,215.1,31.62,313.36c57.34,98.26,183.49,131.43,281.75,74.09,87.96-51.33,123.74-157.78,89.16-250.02l36.49-21.3c7.74-4.51,13.75-11.98,16.21-21.33,4.92-18.69-6.25-37.83-24.95-42.75ZM288.92,345.56c-75.13,43.84-171.57,18.48-215.42-56.64-43.84-75.13-18.48-171.57,56.64-215.42,64.74-37.78,145.3-24.17,194.4,28.39l-.27.16,35.28,60.46.27-.16c21.61,68.6-6.17,145.44-70.91,183.22Z"/>
    <circle class="cls-1" cx="209.99" cy="212.05" r="171.5"/>
    <path class="cls-2" d="M80.68,301.64c-28.86-99.45,28.15-203.4,127.34-232.18,31.55-9.15,63.56-9.59,93.48-2.74-39.98-25.08-90.07-33.65-138.97-19.46-90.96,26.4-143.31,121.53-116.91,212.5,9.43,32.48,27.62,60.03,51.26,80.84-6.71-12.09-12.18-25.11-16.19-38.95Z"/>
    <path class="cls-3" d="M193.68,325.06c-.83-4.95-6.42-41.58,17.17-64.46,27.4-26.57,72.41-13.52,93.99-2.26,22.83,11.9,35.39,30.1,41.11,39.89"/>
    <path class="cls-4" d="M169.21,371.33c-20.75-16.04-26.55-46.68-28.13-55.61-7.66-43.14,13.65-75.63,18.21-82.26,2.9-4.21,32.65-46.09,83.82-48.5,61.18-2.89,115.75,51.1,115.22,95.28-.84,68.56-134.63,133.21-189.11,91.08Z"/>
    <path class="cls-4" d="M120.27,213.55c-11.73,15.1,8.08,103.87,36.83,102.38,17.28-.9,47.63-50.3,42.78-69.88-7.96-32.11-68.74-46.48-79.61-32.49Z"/>
    <path class="cls-4" d="M266.99,142.27c19.42.14,77.65,70.65,58.33,92.3-11.61,13.02-70.1,6.28-82.64-9.66-20.56-26.13,6.31-82.77,24.31-82.64Z"/>
    <path class="cls-4" d="M150.25,293.19c-5.84,5.53-11.04,11.73-15.47,18.45-1.22,1.84-2.39,3.76-2.95,5.9-1.25,4.7.69,9.79,3.84,13.49s7.4,6.28,11.56,8.79c-5.57.06-14.67,4.71-14.3,10.27.37,5.56,9.08,11.7,13.52,15.07,9.53,7.23,22.83,9.19,34.04,5"/>
    <path class="cls-4" d="M253.94,314.45c1.93,0,1.93-3,0-3s-1.93,3,0,3h0Z"/>
    <path class="cls-4" d="M311.5,208.49c7.96-1.13,16.06-1.34,24.07-.62,2.2.2,4.43.47,6.45,1.36,4.46,1.95,7.23,6.63,8.17,11.41.93,4.77.31,9.7-.32,14.52,3.51-4.32,12.82-8.55,16.94-4.8,4.12,3.75,3.5,14.39,3.38,19.96-.27,11.96-7.02,23.58-17.28,29.75"/>
    <path class="cls-4" d="M187.89,176.07c-4.49-.56-7.93-24.36.6-28.63,2.48-1.24,6.14-.91,8.15.89,6.67,5.95-4.23,28.3-8.76,27.74Z"/>
    <path class="cls-1" d="M143.51,268.68c-10.42-2.2-21.81-29.82-8.43-42.75,10.08-9.74,24.92-.37,36.23,1.61s-15.46,43.74-27.8,41.13Z"/>
    <path class="cls-1" d="M297.49,187.08c2.84-10.27-16.46-33.07-34.1-27.12-13.29,4.48-11.78,21.96-15.21,32.92-3.51,11.21,45.95,6.36,49.31-5.79Z"/>
    <path class="cls-5" d="M255.56,184.77c-.15-2.47-1.24-4.35-2.02-5.68-8.54-14.68-38.81-12.84-58.79-.76-18.56,11.23-34.55,35.13-29.38,51.27.22.68,2.68,8.13,6.84,9.37,5.09,1.52,9.67-7.14,11.3-9.92,17.71-30.2,73.18-25.73,72.04-44.29Z"/>
    <ellipse class="cls-1" cx="202.61" cy="280.6" rx="7.47" ry="14.32" transform="translate(-108.08 128.09) rotate(-28.02)"/>
    <ellipse class="cls-1" cx="273.18" cy="244.63" rx="7.47" ry="14.32" transform="translate(-82.9 157.03) rotate(-28.02)"/>
    <ellipse class="cls-1" cx="246.08" cy="275" rx="15.42" ry="8.05" transform="translate(-100.35 147.85) rotate(-28.02)"/>
    <path class="cls-1" d="M232.79,297.04c4.61,2.36,10.33.73,13.66-3.08,3.95-4.52,4.17-11.03,2.74-16.58l-1.85,1.85c2.14.63,3.17,3.29,4.52,4.87,1.69,1.99,4.16,3.02,6.76,3.02,5.82,0,9.9-4.71,12.01-9.68.32-.75.22-1.6-.54-2.05-.63-.38-1.74-.21-2.05.54-1.78,4.19-5.27,8.92-10.45,8.13-4.55-.69-5.14-6.46-9.45-7.72-1.12-.33-2.13.76-1.85,1.85,1.13,4.37,1.2,9.68-1.75,13.4-2.33,2.94-6.73,4.67-10.24,2.87-1.72-.88-3.24,1.71-1.51,2.59h0Z"/>
    <g>
      <path class="cls-2" d="M465.07,169.54c-7.56,0-13.83,6.26-13.83,13.9s6.26,13.75,13.83,13.75c3.74,0,6.77-1.3,9.94-4.1l3.96,4.39c-3.6,3.6-8.71,5.69-13.9,5.69-10.95,0-19.8-8.86-19.8-19.8s8.86-19.8,19.8-19.8c5.18,0,10.3,2.09,13.9,5.69l-4.03,4.39c-3.17-2.81-6.12-4.1-9.86-4.1Z"/>
      <path class="cls-2" d="M496.24,156.36v13.03c3.6-3.6,8.42-5.83,13.82-5.83h1.22v6.05h-1.22c-7.63,0-13.82,6.19-13.82,13.75v21.03h-5.98v-48.03h5.98Z"/>
      <path class="cls-2" d="M521.87,189.41c0,7.56,6.19,13.83,13.75,13.83h1.8v5.98h-1.8c-10.8,0-19.8-9-19.8-19.8v-6.05c0-10.8,8.71-19.8,19.8-19.8s19.8,9,19.8,19.8v4.82h-33.56v1.22ZM535.63,169.54c-7.34,0-12.96,5.47-13.75,12.67h27.58c-.79-7.2-6.48-12.67-13.83-12.67Z"/>
      <path class="cls-2" d="M597.48,210.36v-12.75c-3.6,3.38-8.57,5.54-13.83,5.54-10.95,0-19.8-8.93-19.8-19.8s8.78-19.8,19.8-19.8c5.4,0,10.22,2.23,13.83,5.83v-13.03h5.98v54h-5.98ZM569.83,183.43c0,7.63,6.19,13.75,13.82,13.75s13.83-6.12,13.83-13.75-6.19-13.9-13.83-13.9-13.82,6.26-13.82,13.9Z"/>
      <path class="cls-2" d="M627.07,183.36c0,7.56,6.19,13.83,13.82,13.83h1.8v5.98h-1.8c-10.94,0-19.8-8.86-19.8-19.8v-14.98h-9v-5.98h9v-15.05h5.98v15.05h15.62v5.98h-15.62v14.98Z"/>
      <path class="cls-2" d="M661.27,151.61c0,2.16-2.02,4.18-4.18,4.18s-4.25-2.02-4.25-4.18,2.02-4.25,4.25-4.25,4.18,2.02,4.18,4.25ZM660.04,204.39h-5.98v-41.98h5.98v41.98Z"/>
      <path class="cls-2" d="M694.32,193.15l20.81-33.56,5.18,3.17-25.99,42.05-25.99-42.05,5.18-3.17,20.81,33.56Z"/>
      <path class="cls-2" d="M728.8,189.41c0,7.56,6.19,13.83,13.75,13.83h1.8v5.98h-1.8c-10.8,0-19.8-9-19.8-19.8v-6.05c0-10.8,8.71-19.8,19.8-19.8s19.8,9,19.8,19.8v4.82h-33.55v1.22ZM742.56,169.54c-7.35,0-12.96,5.47-13.75,12.67h27.58c-.79-7.2-6.48-12.67-13.82-12.67Z"/>
    </g>
    <g>
      <path class="cls-2" d="M536.24,240.18c-5.98,0-10.73,4.82-10.73,10.8s4.75,10.73,10.73,10.73c2.95,0,5.47-1.08,7.78-3.24l8.28,8.71c-3.89,3.89-9.79,6.55-16.06,6.55-12.6,0-22.75-10.23-22.75-22.83s10.15-22.75,22.75-22.75c6.27,0,11.45,2.3,16.06,6.55l-8.28,8.71c-2.38-2.16-4.82-3.24-7.78-3.24Z"/>
      <path class="cls-2" d="M603.63,223.91v54h-12.03v-6.98c-3.17,1.8-6.77,2.81-10.8,2.81-12.6,0-22.75-10.15-22.75-22.75s10.15-22.83,22.75-22.83c4.03,0,7.63,1.01,10.8,2.81v-7.06h12.03ZM570.08,250.98c0,5.98,4.75,10.73,10.73,10.73s10.8-4.75,10.8-10.73-4.82-10.8-10.8-10.8-10.73,4.82-10.73,10.8Z"/>
      <path class="cls-2" d="M617.81,235.93c0-12.6,10.58-22.18,22.83-22.18h1.8v11.95h-1.8c-6.12,0-10.8,4.46-10.8,10.23v5.98h12.6v12.02h-12.6v9.65c0,12.6-10.58,22.18-22.82,22.18h-1.8v-11.95h1.8c6.12,0,10.8-4.46,10.8-10.22v-9.65h-5.98v-12.02h5.98v-5.98Z"/>
      <path class="cls-2" d="M671.38,267.76h1.8v11.95h-1.8c-12.6,0-22.75-10.15-22.75-22.75v-6.05c0-12.6,10.15-22.75,22.75-22.75s22.83,10.15,22.83,22.75v7.85h-33.41c.86,5.11,5.4,9,10.58,9ZM671.45,240.11c-4.39,0-8.35,2.74-9.94,6.62h19.8c-1.73-3.82-5.4-6.62-9.87-6.62ZM673.69,207.71l6.34,6.41-10.95,11.02-6.41-6.41,11.02-11.02Z"/>
    </g>
  </g>
</svg>