<?xml version="1.0" encoding="UTF-8"?>
<svg id="Layer_2" data-name="Layer 2" xmlns="http://www.w3.org/2000/svg" viewBox="0 0 493.28 419">
  <defs>
    <style>
      .cls-1 {
        stroke: #754c24;
        stroke-miterlimit: 10;
        stroke-width: 7px;
      }

      .cls-1, .cls-2 {
        fill: #fff3e1;
      }

      .cls-3 {
        fill: #a1865c;
      }

      .cls-3, .cls-4, .cls-2 {
        stroke-width: 0px;
      }

      .cls-4 {
        fill: #8c6239;
      }
    </style>
  </defs>
  <g id="Layer_1-2" data-name="Layer 1">
    <path class="cls-1" d="M479.52,184.75c-6.83-6.83-15.79-10.25-24.75-10.25h-42.25C395.9,77.4,311.34,3.5,209.5,3.5,95.73,3.5,3.5,95.73,3.5,209.5s92.23,206,206,206c101.84,0,186.4-73.9,203.03-171h42.25c8.96,0,17.91-3.42,24.75-10.25,13.67-13.67,13.67-35.83,0-49.5ZM209.5,367c-86.98,0-157.5-70.52-157.5-157.5S122.52,52,209.5,52c74.95,0,137.67,52.36,153.59,122.5h-.32v70h.32c-15.92,70.14-78.64,122.5-153.59,122.5Z"/>
    <circle class="cls-3" cx="210.07" cy="209.5" r="171.5"/>
    <path class="cls-4" d="M60.28,259.33c0-103.55,83.72-187.5,187-187.5,32.85,0,63.71,8.5,90.54,23.42-31.41-35.23-77.13-57.42-128.04-57.42-94.72,0-171.5,76.78-171.5,171.5,0,33.82,9.8,65.35,26.7,91.92-3.07-13.48-4.7-27.51-4.7-41.92Z"/>
    <g>
      <path class="cls-2" d="M174.39,192.65c-4.8,0-9.6-3.6-9.6-8.64,0-9.84,9.36-8.4,9.36-21.6s-7.92-22.32-21.84-22.32c-32.88,0-38.64,44.16-38.64,68.88,0,22.8,13.44,65.76,41.52,65.76,10.8,0,17.04-4.56,24-11.28l3.84,3.84c-9.12,10.08-18.48,13.92-33.12,13.92-37.92,0-62.16-35.28-62.16-70.8s23.04-74.16,63.6-74.16c20.4,0,39.36,9.84,39.36,32.64,0,9.12-5.04,23.76-16.32,23.76ZM109.35,208.97c0-15.36,2.4-37.68,11.28-53.52-13.92,13.44-21.6,33.84-21.6,54.96,0,26.88,14.64,52.8,37.68,62.64-18.96-13.68-27.36-46.8-27.36-64.08ZM185.43,160.73c0,.48.24,1.2.24,1.68,0,14.64-9.6,14.4-9.6,21.6,0,1.2.96,2.64,2.16,3.36,5.04-2.88,8.4-10.8,8.4-18.48,0-3.12-.48-5.76-1.2-8.16Z"/>
      <path class="cls-2" d="M307.59,192.65c-4.8,0-9.6-3.6-9.6-8.64,0-9.84,9.36-8.4,9.36-21.6s-7.92-22.32-21.84-22.32c-32.88,0-38.64,44.16-38.64,68.88,0,22.8,13.44,65.76,41.52,65.76,10.8,0,17.04-4.56,24-11.28l3.84,3.84c-9.12,10.08-18.48,13.92-33.12,13.92-37.92,0-62.16-35.28-62.16-70.8s23.04-74.16,63.6-74.16c20.4,0,39.36,9.84,39.36,32.64,0,9.12-5.04,23.76-16.32,23.76ZM242.55,208.97c0-15.36,2.4-37.68,11.28-53.52-13.92,13.44-21.6,33.84-21.6,54.96,0,26.88,14.64,52.8,37.68,62.64-18.96-13.68-27.36-46.8-27.36-64.08ZM318.63,160.73c0,.48.24,1.2.24,1.68,0,14.64-9.6,14.4-9.6,21.6,0,1.2.96,2.64,2.16,3.36,5.04-2.88,8.4-10.8,8.4-18.48,0-3.12-.48-5.76-1.2-8.16Z"/>
    </g>
    <path class="cls-2" d="M169.28,271.83c1.06-.67,8.71-5.94,11-12,.54-1.42,1.3-3.44,1-6-.23-1.97-.87-2.33-1-4-.17-2.25.69-5.38,3-7,3.39-2.37,8.38-.42,11,2,.34.31,2.35,2.22,3,5,2.05,8.8-10.9,20.5-22,26-3.95,1.96-9.97,4.27-18,5"/>
    <path class="cls-2" d="M302.5,271.27c1.06-.67,8.71-5.94,11-12,.54-1.42,1.3-3.44,1-6-.23-1.97-.87-2.33-1-4-.17-2.25.69-5.38,3-7,3.39-2.37,8.38-.42,11,2,.34.31,2.35,2.22,3,5,2.05,8.8-10.9,20.5-22,26-3.95,1.96-9.97,4.27-18,5"/>
  </g>
</svg>