<?xml version="1.0" encoding="UTF-8"?>
<svg id="Layer_2" data-name="Layer 2" xmlns="http://www.w3.org/2000/svg" viewBox="0 0 508.28 412">
  <defs>
    <style>
      .cls-1 {
        fill: #a1865c;
      }

      .cls-1, .cls-2, .cls-3 {
        stroke-width: 0px;
      }

      .cls-2 {
        fill: #8c6239;
      }

      .cls-3 {
        fill: #fff3e1;
      }
    </style>
  </defs>
  <g id="Layer_1-2" data-name="Layer 1">
    <rect class="cls-3" x="381.28" y="171" width="92" height="70"/>
    <circle class="cls-3" cx="473.28" cy="206" r="35"/>
    <path class="cls-3" d="M206,0C92.23,0,0,92.23,0,206s92.23,206,206,206,206-92.23,206-206S319.77,0,206,0ZM206,363.5c-86.98,0-157.5-70.52-157.5-157.5S119.02,48.5,206,48.5s157.5,70.52,157.5,157.5-70.52,157.5-157.5,157.5Z"/>
    <circle class="cls-1" cx="206" cy="206" r="171.5"/>
    <path class="cls-2" d="M56.78,255.83c0-103.55,83.72-187.5,187-187.5,32.85,0,63.71,8.5,90.54,23.42-31.41-35.23-77.13-57.42-128.04-57.42-94.72,0-171.5,76.78-171.5,171.5,0,33.82,9.8,65.35,26.7,91.92-3.07-13.48-4.7-27.51-4.7-41.92Z"/>
    <g>
      <path class="cls-3" d="M183.1,192.12c-4,0-8-3-8-7.2,0-8.2,7.8-7,7.8-18s-6.6-18.6-18.2-18.6c-27.4,0-32.2,36.8-32.2,57.4,0,19,11.2,54.8,34.6,54.8,9,0,14.2-3.8,20-9.4l3.2,3.2c-7.6,8.4-15.4,11.6-27.6,11.6-31.6,0-51.8-29.4-51.8-59s19.2-61.8,53-61.8c17,0,32.8,8.2,32.8,27.2,0,7.6-4.2,19.8-13.6,19.8ZM128.9,205.72c0-12.8,2-31.4,9.4-44.6-11.6,11.2-18,28.2-18,45.8,0,22.4,12.2,44,31.4,52.2-15.8-11.4-22.8-39-22.8-53.4ZM192.3,165.52c0,.4.2,1,.2,1.4,0,12.2-8,12-8,18,0,1,.8,2.2,1.8,2.8,4.2-2.4,7-9,7-15.4,0-2.6-.4-4.8-1-6.8Z"/>
      <path class="cls-3" d="M294.1,192.12c-4,0-8-3-8-7.2,0-8.2,7.8-7,7.8-18s-6.6-18.6-18.2-18.6c-27.4,0-32.2,36.8-32.2,57.4,0,19,11.2,54.8,34.6,54.8,9,0,14.2-3.8,20-9.4l3.2,3.2c-7.6,8.4-15.4,11.6-27.6,11.6-31.6,0-51.8-29.4-51.8-59s19.2-61.8,53-61.8c17,0,32.8,8.2,32.8,27.2,0,7.6-4.2,19.8-13.6,19.8ZM239.9,205.72c0-12.8,2-31.4,9.4-44.6-11.6,11.2-18,28.2-18,45.8,0,22.4,12.2,44,31.4,52.2-15.8-11.4-22.8-39-22.8-53.4ZM303.3,165.52c0,.4.2,1,.2,1.4,0,12.2-8,12-8,18,0,1,.8,2.2,1.8,2.8,4.2-2.4,7-9,7-15.4,0-2.6-.4-4.8-1-6.8Z"/>
    </g>
  </g>
</svg>